<svg class="navbar-logo color-kit-digital" version="1.1" id="Capa_1" xmlns="http://www.w3.org/2000/svg" xmlns:xlink="http://www.w3.org/1999/xlink" x="0px" y="0px" viewBox="0 0 500 500" xml:space="preserve" data-v-5a4586aa="" style="max-height: 60px;"><g data-v-5a4586aa=""><defs data-v-5a4586aa=""><rect id="SVGID_1_" width="500" height="500" data-v-5a4586aa=""></rect></defs><clipPath id="SVGID_2_" data-v-5a4586aa=""><use xlink:href="#SVGID_1_" data-v-5a4586aa="" style="overflow: visible;"></use></clipPath><path class="st0" d="M84.02,63.04c-8.4,7.46-17.57,16.61-26.72,27.68c-12.57,15.19-21.74,29.92-28.4,42.48		c49.35-1.06,87.45-0.78,107.04,0.06c4.56,0.2,12.3,0.68,20.43,5.17c10.56,5.82,15.75,14.93,20.51,23.29		c4.18,7.35,6.57,13.97,7.94,18.55c-27.74,60.5-55.48,120.99-83.22,181.49h77.65l44.55-97.53l65.58,141.21		c1.63,3.46,6.27,12.16,16.46,18.38c9.96,6.08,19.99,6.12,25.18,6.15c20.92,0.13,52.69,0.42,92.48,0.02		c8.89-8.56,18.92-19.49,28.78-33.05c9.83-13.52,17.13-26.39,22.54-37.46c-46.98,0.11-83.07-0.11-102.33-0.17		c-2.94-0.01-8.97-0.09-15.89-2.94c-13.99-5.76-20.77-18.35-23.99-24.33c-2.32-4.31-3.75-8.14-4.63-10.86		c-55.75-122.28-97.76-211.63-108.67-234.03c-1.53-3.13-5.25-10.7-13.23-16.52c-10.64-7.76-22.74-8.02-29.46-8.07		C153.94,62.39,122.41,62.24,84.02,63.04" data-v-5a4586aa=""></path></g></svg>